<svg width="153" height="152" viewBox="0 0 153 152" fill="none" xmlns="http://www.w3.org/2000/svg">
<path d="M64.2949 16.749C36.2655 21.7972 15 46.3137 15 75.7969C15 104.04 34.5143 127.724 60.7949 134.104L57.248 148.666C40.5496 144.598 25.7549 134.918 15.3398 121.246C4.92482 107.575 -0.479042 90.7407 0.0332031 73.5615C0.545456 56.3823 6.94306 39.8998 18.1543 26.873C29.3655 13.8465 44.711 5.06577 61.6221 2L64.2949 16.749Z" fill="#A569FF"/>
<path d="M151.625 77.002C151.624 88.3499 149.048 99.5498 144.091 109.758C139.134 119.966 131.925 128.916 123.008 135.934C114.09 142.952 103.697 147.855 92.6094 150.273C81.5222 152.692 70.0301 152.562 59 149.896L62.5215 135.328C67.0447 136.418 71.7673 136.996 76.625 136.996C109.761 136.996 136.622 110.135 136.624 77L151.625 77.002Z" fill="#FF5B5B"/>
<path d="M64 1.20996C74.8082 -0.755085 85.9167 -0.322406 96.5391 2.47852C107.161 5.27946 117.039 10.3801 125.473 17.4189C133.906 24.4577 140.691 33.2632 145.347 43.2129C150.003 53.1629 152.416 64.0146 152.416 75H137.416C137.416 41.8629 110.553 15 77.416 15C73.7515 15 70.1638 15.3288 66.6807 15.958L64 1.20996Z" fill="#A0FF69"/>
</svg>
