<svg width="40" height="40" viewBox="0 0 40 40" fill="none" xmlns="http://www.w3.org/2000/svg">
<rect width="40" height="40" rx="20" fill="#D9D9D9"/>
<path d="M7.27145 21.7347L4.47462 26.2361C4.26767 26.5692 4.50719 27 4.89931 27H17.0685C17.4673 27 17.7056 26.556 17.4852 26.2237L14.5339 21.773C14.4413 21.6333 14.2848 21.5493 14.1172 21.5493L10.4729 21.5493C10.3795 21.5493 10.3039 21.4736 10.3039 21.3803C10.3039 21.2869 10.3795 21.2113 10.4729 21.2113H14.662C15.0373 21.2113 15.2788 20.8131 15.1054 20.4803L12.9191 16.2831C12.833 16.1178 12.6621 16.0141 12.4757 16.0141H11.2639C11.1822 16.0141 11.116 15.9479 11.116 15.8662C11.116 15.7845 11.1822 15.7183 11.2639 15.7183H12.5351C12.9276 15.7183 13.1671 15.2866 12.9592 14.9536L11.5083 12.6286C11.3207 12.3279 10.8885 12.3125 10.6799 12.599L8.73832 15.2658C8.60124 15.454 8.73573 15.7183 8.96862 15.7183C9.18589 15.7183 9.32318 15.9518 9.21757 16.1417L6.681 20.7021C6.55397 20.9305 6.7191 21.2113 6.98042 21.2113C7.24913 21.2113 7.41326 21.5065 7.27145 21.7347Z" fill="#43523A"/>
<path d="M25.2715 21.7347L22.4746 26.2361C22.2677 26.5692 22.5072 27 22.8993 27H35.0685C35.4673 27 35.7056 26.556 35.4852 26.2237L32.5339 21.773C32.4413 21.6333 32.2848 21.5493 32.1172 21.5493L28.4729 21.5493C28.3795 21.5493 28.3039 21.4736 28.3039 21.3803C28.3039 21.2869 28.3795 21.2113 28.4729 21.2113H32.662C33.0373 21.2113 33.2788 20.8131 33.1054 20.4803L30.9191 16.2831C30.833 16.1178 30.6621 16.0141 30.4757 16.0141H29.2639C29.1822 16.0141 29.116 15.9479 29.116 15.8662C29.116 15.7845 29.1822 15.7183 29.2639 15.7183H30.5351C30.9276 15.7183 31.1671 15.2866 30.9592 14.9536L29.5083 12.6286C29.3207 12.3279 28.8885 12.3125 28.6799 12.599L26.7383 15.2658C26.6012 15.454 26.7357 15.7183 26.9686 15.7183C27.1859 15.7183 27.3232 15.9518 27.2176 16.1417L24.681 20.7021C24.554 20.9305 24.7191 21.2113 24.9804 21.2113C25.2491 21.2113 25.4133 21.5065 25.2715 21.7347Z" fill="#43523A"/>
<path d="M15.8051 23.1407L12.3476 30.2821C12.1868 30.6142 12.4287 31 12.7976 31H27.1788C27.5534 31 27.795 30.6033 27.6231 30.2705L24.009 23.2761C23.9232 23.11 23.7518 23.0056 23.5648 23.0056L19.4523 23.0056C19.3154 23.0056 19.2044 22.8947 19.2044 22.7577C19.2044 22.6208 19.3154 22.5099 19.4523 22.5099H24.3845C24.7393 22.5099 24.9812 22.1506 24.8478 21.8218L22.1598 15.1993C22.0832 15.0107 21.9 14.8873 21.6965 14.8873H20.3495C20.2297 14.8873 20.1326 14.7902 20.1326 14.6704C20.1326 14.5506 20.2297 14.4535 20.3495 14.4535H21.9854C22.3547 14.4535 22.5966 14.067 22.4351 13.7349L20.5482 9.85465C20.3722 9.49263 19.8623 9.47645 19.6637 9.82658L17.3507 13.9035C17.2114 14.149 17.3888 14.4535 17.671 14.4535C17.9361 14.4535 18.1143 14.7251 18.0089 14.9683L15.0065 21.8958C14.8807 22.1859 15.0934 22.5099 15.4096 22.5099C15.7338 22.5099 15.9463 22.8489 15.8051 23.1407Z" fill="#43523A"/>
</svg>
