<svg width="554" height="275" viewBox="0 0 554 275" fill="none" xmlns="http://www.w3.org/2000/svg">
<path d="M58 172.833C79.8333 144.333 98.9832 98.2294 145.5 87.3334C217.553 70.456 217.206 219.556 290.5 209.333C342.152 202.129 342.36 134.561 393.5 124.333C439.892 115.055 467.024 171.282 511 153.833C529.335 146.559 552 124.333 552 124.333" stroke="#FF0000" stroke-width="5"/>
<path d="M7.276 264.272H3.064V267.008C3.248 266.752 3.52 266.544 3.88 266.384C4.24 266.216 4.628 266.132 5.044 266.132C5.708 266.132 6.248 266.272 6.664 266.552C7.08 266.824 7.376 267.18 7.552 267.62C7.736 268.052 7.828 268.512 7.828 269C7.828 269.576 7.72 270.092 7.504 270.548C7.288 271.004 6.956 271.364 6.508 271.628C6.068 271.892 5.52 272.024 4.864 272.024C4.024 272.024 3.344 271.808 2.824 271.376C2.304 270.944 1.988 270.368 1.876 269.648H2.944C3.048 270.104 3.268 270.46 3.604 270.716C3.94 270.972 4.364 271.1 4.876 271.1C5.508 271.1 5.984 270.912 6.304 270.536C6.624 270.152 6.784 269.648 6.784 269.024C6.784 268.4 6.624 267.92 6.304 267.584C5.984 267.24 5.512 267.068 4.888 267.068C4.464 267.068 4.092 267.172 3.772 267.38C3.46 267.58 3.232 267.856 3.088 268.208H2.056V263.312H7.276V264.272ZM18.9432 263.696V272H17.8512V265.808L15.0912 272H14.3232L11.5512 265.796V272H10.4592V263.696H11.6352L14.7072 270.56L17.7792 263.696H18.9432Z" fill="black"/>
<path d="M1.456 199.32V198.324H3.712V207H2.608V199.32H1.456ZM6.58775 202.572C6.58775 201.196 6.81175 200.124 7.25975 199.356C7.70775 198.58 8.49175 198.192 9.61175 198.192C10.7238 198.192 11.5038 198.58 11.9518 199.356C12.3997 200.124 12.6237 201.196 12.6237 202.572C12.6237 203.972 12.3997 205.06 11.9518 205.836C11.5038 206.612 10.7238 207 9.61175 207C8.49175 207 7.70775 206.612 7.25975 205.836C6.81175 205.06 6.58775 203.972 6.58775 202.572ZM11.5438 202.572C11.5438 201.876 11.4958 201.288 11.3998 200.808C11.3118 200.32 11.1238 199.928 10.8358 199.632C10.5558 199.336 10.1478 199.188 9.61175 199.188C9.06775 199.188 8.65175 199.336 8.36375 199.632C8.08375 199.928 7.89575 200.32 7.79975 200.808C7.71175 201.288 7.66775 201.876 7.66775 202.572C7.66775 203.292 7.71175 203.896 7.79975 204.384C7.89575 204.872 8.08375 205.264 8.36375 205.56C8.65175 205.856 9.06775 206.004 9.61175 206.004C10.1478 206.004 10.5558 205.856 10.8358 205.56C11.1238 205.264 11.3118 204.872 11.3998 204.384C11.4958 203.896 11.5438 203.292 11.5438 202.572ZM23.7869 198.696V207H22.6949V200.808L19.9349 207H19.1669L16.3949 200.796V207H15.3029V198.696H16.4789L19.5509 205.56L22.6229 198.696H23.7869Z" fill="black"/>
<path d="M0.612 141.124C1.628 140.308 2.424 139.64 3 139.12C3.576 138.592 4.06 138.044 4.452 137.476C4.852 136.9 5.052 136.336 5.052 135.784C5.052 135.264 4.924 134.856 4.668 134.56C4.42 134.256 4.016 134.104 3.456 134.104C2.912 134.104 2.488 134.276 2.184 134.62C1.888 134.956 1.728 135.408 1.704 135.976H0.648C0.68 135.08 0.952 134.388 1.464 133.9C1.976 133.412 2.636 133.168 3.444 133.168C4.268 133.168 4.92 133.396 5.4 133.852C5.888 134.308 6.132 134.936 6.132 135.736C6.132 136.4 5.932 137.048 5.532 137.68C5.14 138.304 4.692 138.856 4.188 139.336C3.684 139.808 3.04 140.36 2.256 140.992H6.384V141.904H0.612V141.124ZM8.64634 137.572C8.64634 136.196 8.87034 135.124 9.31834 134.356C9.76634 133.58 10.5503 133.192 11.6703 133.192C12.7823 133.192 13.5623 133.58 14.0103 134.356C14.4583 135.124 14.6823 136.196 14.6823 137.572C14.6823 138.972 14.4583 140.06 14.0103 140.836C13.5623 141.612 12.7823 142 11.6703 142C10.5503 142 9.76634 141.612 9.31834 140.836C8.87034 140.06 8.64634 138.972 8.64634 137.572ZM13.6023 137.572C13.6023 136.876 13.5543 136.288 13.4583 135.808C13.3703 135.32 13.1823 134.928 12.8943 134.632C12.6143 134.336 12.2063 134.188 11.6703 134.188C11.1263 134.188 10.7103 134.336 10.4223 134.632C10.1423 134.928 9.95434 135.32 9.85834 135.808C9.77034 136.288 9.72634 136.876 9.72634 137.572C9.72634 138.292 9.77034 138.896 9.85834 139.384C9.95434 139.872 10.1423 140.264 10.4223 140.56C10.7103 140.856 11.1263 141.004 11.6703 141.004C12.2063 141.004 12.6143 140.856 12.8943 140.56C13.1823 140.264 13.3703 139.872 13.4583 139.384C13.5543 138.896 13.6023 138.292 13.6023 137.572ZM25.8455 133.696V142H24.7535V135.808L21.9935 142H21.2255L18.4535 135.796V142H17.3615V133.696H18.5375L21.6095 140.56L24.6815 133.696H25.8455Z" fill="black"/>
<path d="M1.72 70.508C1.776 69.772 2.06 69.196 2.572 68.78C3.084 68.364 3.748 68.156 4.564 68.156C5.108 68.156 5.576 68.256 5.968 68.456C6.368 68.648 6.668 68.912 6.868 69.248C7.076 69.584 7.18 69.964 7.18 70.388C7.18 70.884 7.036 71.312 6.748 71.672C6.468 72.032 6.1 72.264 5.644 72.368V72.428C6.164 72.556 6.576 72.808 6.88 73.184C7.184 73.56 7.336 74.052 7.336 74.66C7.336 75.116 7.232 75.528 7.024 75.896C6.816 76.256 6.504 76.54 6.088 76.748C5.672 76.956 5.172 77.06 4.588 77.06C3.74 77.06 3.044 76.84 2.5 76.4C1.956 75.952 1.652 75.32 1.588 74.504H2.644C2.7 74.984 2.896 75.376 3.232 75.68C3.568 75.984 4.016 76.136 4.576 76.136C5.136 76.136 5.56 75.992 5.848 75.704C6.144 75.408 6.292 75.028 6.292 74.564C6.292 73.964 6.092 73.532 5.692 73.268C5.292 73.004 4.688 72.872 3.88 72.872H3.604V71.96H3.892C4.628 71.952 5.184 71.832 5.56 71.6C5.936 71.36 6.124 70.992 6.124 70.496C6.124 70.072 5.984 69.732 5.704 69.476C5.432 69.22 5.04 69.092 4.528 69.092C4.032 69.092 3.632 69.22 3.328 69.476C3.024 69.732 2.844 70.076 2.788 70.508H1.72ZM9.81041 72.572C9.81041 71.196 10.0344 70.124 10.4824 69.356C10.9304 68.58 11.7144 68.192 12.8344 68.192C13.9464 68.192 14.7264 68.58 15.1744 69.356C15.6224 70.124 15.8464 71.196 15.8464 72.572C15.8464 73.972 15.6224 75.06 15.1744 75.836C14.7264 76.612 13.9464 77 12.8344 77C11.7144 77 10.9304 76.612 10.4824 75.836C10.0344 75.06 9.81041 73.972 9.81041 72.572ZM14.7664 72.572C14.7664 71.876 14.7184 71.288 14.6224 70.808C14.5344 70.32 14.3464 69.928 14.0584 69.632C13.7784 69.336 13.3704 69.188 12.8344 69.188C12.2904 69.188 11.8744 69.336 11.5864 69.632C11.3064 69.928 11.1184 70.32 11.0224 70.808C10.9344 71.288 10.8904 71.876 10.8904 72.572C10.8904 73.292 10.9344 73.896 11.0224 74.384C11.1184 74.872 11.3064 75.264 11.5864 75.56C11.8744 75.856 12.2904 76.004 12.8344 76.004C13.3704 76.004 13.7784 75.856 14.0584 75.56C14.3464 75.264 14.5344 74.872 14.6224 74.384C14.7184 73.896 14.7664 73.292 14.7664 72.572ZM27.0096 68.696V77H25.9176V70.808L23.1576 77H22.3896L19.6176 70.796V77H18.5256V68.696H19.7016L22.7736 75.56L25.8456 68.696H27.0096Z" fill="black"/>
<path d="M7.276 4.272H3.064V7.008C3.248 6.752 3.52 6.544 3.88 6.384C4.24 6.216 4.628 6.132 5.044 6.132C5.708 6.132 6.248 6.272 6.664 6.552C7.08 6.824 7.376 7.18 7.552 7.62C7.736 8.052 7.828 8.512 7.828 9C7.828 9.576 7.72 10.092 7.504 10.548C7.288 11.004 6.956 11.364 6.508 11.628C6.068 11.892 5.52 12.024 4.864 12.024C4.024 12.024 3.344 11.808 2.824 11.376C2.304 10.944 1.988 10.368 1.876 9.648H2.944C3.048 10.104 3.268 10.46 3.604 10.716C3.94 10.972 4.364 11.1 4.876 11.1C5.508 11.1 5.984 10.912 6.304 10.536C6.624 10.152 6.784 9.648 6.784 9.024C6.784 8.4 6.624 7.92 6.304 7.584C5.984 7.24 5.512 7.068 4.888 7.068C4.464 7.068 4.092 7.172 3.772 7.38C3.46 7.58 3.232 7.856 3.088 8.208H2.056V3.312H7.276V4.272ZM10.2792 7.572C10.2792 6.196 10.5032 5.124 10.9512 4.356C11.3992 3.58 12.1832 3.192 13.3032 3.192C14.4152 3.192 15.1952 3.58 15.6432 4.356C16.0912 5.124 16.3152 6.196 16.3152 7.572C16.3152 8.972 16.0912 10.06 15.6432 10.836C15.1952 11.612 14.4152 12 13.3032 12C12.1832 12 11.3992 11.612 10.9512 10.836C10.5032 10.06 10.2792 8.972 10.2792 7.572ZM15.2352 7.572C15.2352 6.876 15.1872 6.288 15.0912 5.808C15.0032 5.32 14.8152 4.928 14.5272 4.632C14.2472 4.336 13.8392 4.188 13.3032 4.188C12.7592 4.188 12.3432 4.336 12.0552 4.632C11.7752 4.928 11.5872 5.32 11.4912 5.808C11.4032 6.288 11.3592 6.876 11.3592 7.572C11.3592 8.292 11.4032 8.896 11.4912 9.384C11.5872 9.872 11.7752 10.264 12.0552 10.56C12.3432 10.856 12.7592 11.004 13.3032 11.004C13.8392 11.004 14.2472 10.856 14.5272 10.56C14.8152 10.264 15.0032 9.872 15.0912 9.384C15.1872 8.896 15.2352 8.292 15.2352 7.572ZM27.4783 3.696V12H26.3863V5.808L23.6263 12H22.8583L20.0863 5.796V12H18.9943V3.696H20.1703L23.2423 10.56L26.3143 3.696H27.4783Z" fill="black"/>
<circle cx="147.5" cy="87.5" r="7.5" fill="#FF0000"/>
<circle cx="290.5" cy="209.5" r="7.5" fill="#FF0000"/>
<circle cx="396.5" cy="123.5" r="7.5" fill="#FF0000"/>
<circle cx="492.5" cy="157.5" r="7.5" fill="#FF0000"/>
</svg>
